<mxfile host="app.diagrams.net" modified="2024-01-18T04:38:32.293Z" agent="Mozilla/5.0 (Macintosh; Intel Mac OS X 10_15_7) AppleWebKit/537.36 (KHTML, like Gecko) Chrome/120.0.0.0 Safari/537.36" etag="76rqBeIZXy1HJHiXP6ys" version="22.1.21" type="device">
  <diagram name="Page-1" id="FT2DKe5T_E51LZx3Picg">
    <mxGraphModel dx="1050" dy="661" grid="1" gridSize="10" guides="1" tooltips="1" connect="1" arrows="1" fold="1" page="0" pageScale="1" pageWidth="827" pageHeight="1169" background="#FFF2CC" math="0" shadow="0">
      <root>
        <mxCell id="0" />
        <mxCell id="1" parent="0" />
        <mxCell id="geG-HRbFNi2AKa4cicpo-1" value="" style="rounded=0;whiteSpace=wrap;html=1;" vertex="1" parent="1">
          <mxGeometry x="140" y="150" width="240" height="320" as="geometry" />
        </mxCell>
        <mxCell id="geG-HRbFNi2AKa4cicpo-2" value="Stack" style="text;html=1;strokeColor=none;fillColor=none;align=center;verticalAlign=middle;whiteSpace=wrap;rounded=0;fontSize=22;" vertex="1" parent="1">
          <mxGeometry x="220" y="120" width="60" height="30" as="geometry" />
        </mxCell>
        <mxCell id="geG-HRbFNi2AKa4cicpo-3" value="" style="rounded=0;whiteSpace=wrap;html=1;" vertex="1" parent="1">
          <mxGeometry x="700" y="150" width="240" height="320" as="geometry" />
        </mxCell>
        <mxCell id="geG-HRbFNi2AKa4cicpo-5" value="Heap" style="text;html=1;strokeColor=none;fillColor=none;align=center;verticalAlign=middle;whiteSpace=wrap;rounded=0;fontSize=22;" vertex="1" parent="1">
          <mxGeometry x="800" y="120" width="60" height="30" as="geometry" />
        </mxCell>
        <mxCell id="geG-HRbFNi2AKa4cicpo-8" value="" style="edgeStyle=orthogonalEdgeStyle;rounded=0;orthogonalLoop=1;jettySize=auto;html=1;" edge="1" parent="1" source="geG-HRbFNi2AKa4cicpo-6" target="geG-HRbFNi2AKa4cicpo-7">
          <mxGeometry relative="1" as="geometry" />
        </mxCell>
        <mxCell id="geG-HRbFNi2AKa4cicpo-6" value="" style="rounded=1;whiteSpace=wrap;html=1;" vertex="1" parent="1">
          <mxGeometry x="200" y="190" width="120" height="60" as="geometry" />
        </mxCell>
        <mxCell id="geG-HRbFNi2AKa4cicpo-7" value="Google" style="whiteSpace=wrap;html=1;rounded=1;fontSize=17;" vertex="1" parent="1">
          <mxGeometry x="760" y="190" width="120" height="60" as="geometry" />
        </mxCell>
        <mxCell id="geG-HRbFNi2AKa4cicpo-9" value="5555" style="text;html=1;strokeColor=none;fillColor=none;align=center;verticalAlign=middle;whiteSpace=wrap;rounded=0;fontSize=17;" vertex="1" parent="1">
          <mxGeometry x="750" y="250" width="60" height="30" as="geometry" />
        </mxCell>
        <mxCell id="geG-HRbFNi2AKa4cicpo-10" value="5555" style="text;html=1;strokeColor=none;fillColor=none;align=center;verticalAlign=middle;whiteSpace=wrap;rounded=0;fontSize=18;" vertex="1" parent="1">
          <mxGeometry x="220" y="205" width="60" height="30" as="geometry" />
        </mxCell>
        <mxCell id="geG-HRbFNi2AKa4cicpo-12" style="edgeStyle=orthogonalEdgeStyle;rounded=0;orthogonalLoop=1;jettySize=auto;html=1;entryX=0;entryY=0.75;entryDx=0;entryDy=0;" edge="1" parent="1" source="geG-HRbFNi2AKa4cicpo-11" target="geG-HRbFNi2AKa4cicpo-7">
          <mxGeometry relative="1" as="geometry" />
        </mxCell>
        <mxCell id="geG-HRbFNi2AKa4cicpo-11" value="anotherCompany" style="whiteSpace=wrap;html=1;rounded=1;fontSize=17;" vertex="1" parent="1">
          <mxGeometry x="210" y="290" width="120" height="60" as="geometry" />
        </mxCell>
      </root>
    </mxGraphModel>
  </diagram>
</mxfile>
